PathFileType  4	(X/Y/Z) D:/Data/Berkelmans/SUB01/trc/slow_skatebelt
DataRate	CameraRate	NumFrames	NumMarkers	Units	OrigDataRate	OrigDataStartFrame	OrigNumFrames
100.0	100.0	10	31	m	100.0	401	800
Frame#	Time	LCAL			RCAL			C7			LSHO			RTIB2			RFEM2			LFEM2			RTIB3			RFEM1			LSIPS			RTIB1			LTIB2			RFEM3			RSHO			RKNEE_med			LKNEE_lat			RKNEE_lat			LMTP5			RMTP5			RSIAS			RSIPS			LSIAS			LKNEE_med			LANK_lat			LANK_med			RANK_lat			RANK_med			LTIB3			LTIB1			LFEM3			LFEM1			
		X1	Y1	Z1	X2	Y2	Z2	X3	Y3	Z3	X4	Y4	Z4	X5	Y5	Z5	X6	Y6	Z6	X7	Y7	Z7	X8	Y8	Z8	X9	Y9	Z9	X10	Y10	Z10	X11	Y11	Z11	X12	Y12	Z12	X13	Y13	Z13	X14	Y14	Z14	X15	Y15	Z15	X16	Y16	Z16	X17	Y17	Z17	X18	Y18	Z18	X19	Y19	Z19	X20	Y20	Z20	X21	Y21	Z21	X22	Y22	Z22	X23	Y23	Z23	X24	Y24	Z24	X25	Y25	Z25	X26	Y26	Z26	X27	Y27	Z27	X28	Y28	Z28	X29	Y29	Z29	X30	Y30	Z30	X31	Y31	Z31	

401	1.0100000	-0.0047570	0.0621244	-0.0116745	-0.3369756	0.0704844	0.3284454	-0.1727879	1.3890090	0.1083610	-0.1006342	1.4388357	-0.0346248	-0.2201898	0.3411424	0.3660465	-0.1608704	0.5893104	0.3293746	-0.0685555	0.6009549	-0.0727398	-0.2753123	0.3548749	0.3407820	-0.1878015	0.6933440	0.3191457	-0.1979226	1.0368622	0.0523822	-0.2258196	0.4090467	0.3559497	-0.0158871	0.3440163	-0.0883201	-0.2058702	0.6088195	0.2959336	-0.0635602	1.3811976	0.3238171	-0.1280922	0.4922793	0.2154280	0.0351036	0.4970422	-0.0577449	-0.1191909	0.4894029	0.3086120	0.1516270	0.0543735	-0.0881766	-0.1659673	0.0451264	0.3569571	0.0091021	0.9645903	0.2142631	-0.1879308	1.0264623	0.1674893	-0.0122123	0.9718065	-0.0114134	0.0311244	0.5046566	0.0361940	0.0444662	0.1031164	-0.0668788	0.0697789	0.1141640	0.0107613	-0.2640487	0.1071767	0.3582603	-0.2639953	0.1180521	0.2761496	-0.0603211	0.3481436	-0.0543922	-0.0345248	0.4067737	-0.0771359	-0.1131026	0.5980599	-0.0215290	-0.1373266	0.6779874	-0.0556174
402	1.0200000	-0.0093703	0.0627234	-0.0119208	-0.3418372	0.0720899	0.3280927	-0.1733781	1.3889798	0.1049423	-0.1013359	1.4386786	-0.0380873	-0.2221774	0.3418778	0.3641137	-0.1613827	0.5886618	0.3259141	-0.0640009	0.6025090	-0.0777295	-0.2771297	0.3561311	0.3383464	-0.1884259	0.6926008	0.3151916	-0.1980966	1.0373803	0.0495135	-0.2271531	0.4099247	0.3532763	-0.0118660	0.3416509	-0.0914226	-0.2061563	0.6079166	0.2922592	-0.0635015	1.3815545	0.3203353	-0.1279115	0.4913697	0.2126038	0.0352727	0.4968758	-0.0600950	-0.1194781	0.4888178	0.3059199	0.1468769	0.0527874	-0.0885356	-0.1711340	0.0450463	0.3567765	0.0084415	0.9641917	0.2111815	-0.1879540	1.0266835	0.1644614	-0.0122623	0.9725674	-0.0142772	0.0339136	0.5050587	0.0328755	0.0401876	0.1027948	-0.0672890	0.0656073	0.1138805	0.0103800	-0.2685262	0.1080767	0.3578013	-0.2683658	0.1187290	0.2756277	-0.0608138	0.3491153	-0.0576169	-0.0338052	0.4073176	-0.0804404	-0.1109567	0.5980600	-0.0291334	-0.1335511	0.6783673	-0.0631124
403	1.0300000	-0.0141348	0.0631253	-0.0120608	-0.3465743	0.0739137	0.3278554	-0.1738773	1.3892538	0.1016397	-0.1020005	1.4387433	-0.0415914	-0.2238463	0.3429204	0.3619438	-0.1613579	0.5878944	0.3223017	-0.0606556	0.6023328	-0.0823827	-0.2784902	0.3575529	0.3361398	-0.1890038	0.6916865	0.3110724	-0.1980413	1.0378294	0.0462863	-0.2279407	0.4107745	0.3506659	-0.0120365	0.3411858	-0.0927026	-0.2061630	0.6068228	0.2883455	-0.0633187	1.3819890	0.3168136	-0.1270935	0.4902804	0.2098092	0.0351350	0.4965011	-0.0621605	-0.1192546	0.4882759	0.3032503	0.1420083	0.0511687	-0.0885241	-0.1763756	0.0450449	0.3568080	0.0077561	0.9636481	0.2082119	-0.1881155	1.0268661	0.1612155	-0.0120593	0.9733686	-0.0173588	0.0356712	0.5049795	0.0292718	0.0359277	0.1025141	-0.0675642	0.0614882	0.1135804	0.0100231	-0.2727933	0.1092049	0.3573928	-0.2727675	0.1197991	0.2754422	-0.0618055	0.3496762	-0.0596506	-0.0338388	0.4074380	-0.0827913	-0.1105830	0.5971973	-0.0377238	-0.1305039	0.6781611	-0.0715309
404	1.0400000	-0.0190385	0.0635732	-0.0121791	-0.3511458	0.0761862	0.3275383	-0.1747329	1.3897862	0.0981851	-0.1026760	1.4387640	-0.0450979	-0.2249828	0.3439595	0.3598275	-0.1612934	0.5872963	0.3186977	-0.0584132	0.6013215	-0.0848639	-0.2794980	0.3590140	0.3337314	-0.1893319	0.6907783	0.3068656	-0.1978567	1.0381300	0.0427799	-0.2283169	0.4118233	0.3481141	-0.0134669	0.3409020	-0.0934533	-0.2059108	0.6056532	0.2841015	-0.0632161	1.3824157	0.3134155	-0.1261329	0.4894710	0.2070543	0.0346272	0.4959812	-0.0640003	-0.1186390	0.4878731	0.3005784	0.1371962	0.0496310	-0.0884642	-0.1816321	0.0449964	0.3567091	0.0070939	0.9633786	0.2050180	-0.1885527	1.0270960	0.1576818	-0.0113417	0.9738918	-0.0205184	0.0367421	0.5047502	0.0266263	0.0318824	0.1021614	-0.0676825	0.0573466	0.1131701	0.0099245	-0.2770558	0.1106683	0.3571034	-0.2764260	0.1206663	0.2748446	-0.0629833	0.3499260	-0.0602516	-0.0347904	0.4072934	-0.0840875	-0.1125185	0.5970519	-0.0432117	-0.1284931	0.6768648	-0.0793788
405	1.0500000	-0.0238612	0.0638415	-0.0120050	-0.3558303	0.0786722	0.3276234	-0.1753332	1.3901498	0.0946773	-0.1033245	1.4388768	-0.0486899	-0.2260573	0.3452750	0.3578842	-0.1609506	0.5865864	0.3147838	-0.0580314	0.6003448	-0.0853813	-0.2803368	0.3607553	0.3313883	-0.1897395	0.6898508	0.3023591	-0.1978637	1.0382283	0.0391060	-0.2284400	0.4130195	0.3453767	-0.0156332	0.3405166	-0.0936930	-0.2054899	0.6045503	0.2797584	-0.0633290	1.3829110	0.3099927	-0.1246691	0.4885499	0.2043272	0.0335289	0.4952041	-0.0657403	-0.1178666	0.4874795	0.2980721	0.1323491	0.0484198	-0.0884305	-0.1867681	0.0450037	0.3568212	0.0065385	0.9633110	0.2017932	-0.1889895	1.0271333	0.1540092	-0.0111358	0.9744208	-0.0236743	0.0364983	0.5043871	0.0247359	0.0274748	0.1020009	-0.0675426	0.0529400	0.1127542	0.0100334	-0.2812135	0.1122638	0.3566741	-0.2823917	0.1226517	0.2739531	-0.0648333	0.3500496	-0.0599351	-0.0366972	0.4071932	-0.0842535	-0.1131318	0.5969219	-0.0456033	-0.1287218	0.6751217	-0.0851672
406	1.0600000	-0.0289525	0.0639977	-0.0118999	-0.3600364	0.0815810	0.3271754	-0.1762318	1.3905565	0.0909973	-0.1037662	1.4389705	-0.0522850	-0.2276249	0.3463307	0.3562744	-0.1602136	0.5862450	0.3106001	-0.0581212	0.5989048	-0.0846405	-0.2811569	0.3625728	0.3291763	-0.1900607	0.6890486	0.2977842	-0.1975436	1.0382220	0.0349968	-0.2283697	0.4142972	0.3428030	-0.0229863	0.3433338	-0.0934881	-0.2043894	0.6036335	0.2749308	-0.0638136	1.3832959	0.3065609	-0.1228097	0.4878594	0.2015566	0.0328803	0.4943308	-0.0674035	-0.1167820	0.4871467	0.2954817	0.1270965	0.0473228	-0.0880921	-0.1918932	0.0451127	0.3567982	0.0061730	0.9634131	0.1985923	-0.1894771	1.0270427	0.1499595	-0.0108434	0.9746665	-0.0270496	0.0353674	0.5041638	0.0234995	0.0231510	0.1018594	-0.0674158	0.0485524	0.1123822	0.0102447	-0.2850769	0.1141485	0.3563197	-0.2859700	0.1240572	0.2735812	-0.0672490	0.3502172	-0.0592867	-0.0391718	0.4071918	-0.0839316	-0.1130090	0.5969125	-0.0449572	-0.1311958	0.6736704	-0.0879995
407	1.0700000	-0.0338754	0.0642556	-0.0117484	-0.3641909	0.0849087	0.3268841	-0.1772992	1.3909781	0.0872036	-0.1042849	1.4390918	-0.0558991	-0.2281058	0.3478801	0.3541534	-0.1599023	0.5856456	0.3064463	-0.0634177	0.5983989	-0.0855140	-0.2813788	0.3645174	0.3267552	-0.1902649	0.6883809	0.2930740	-0.1975065	1.0380096	0.0309661	-0.2278058	0.4156463	0.3400796	-0.0260321	0.3433648	-0.0936180	-0.2037805	0.6027629	0.2703231	-0.0647609	1.3836636	0.3030245	-0.1206997	0.4871428	0.1987866	0.0316841	0.4939360	-0.0686073	-0.1153791	0.4870061	0.2931691	0.1222839	0.0486577	-0.0891223	-0.1969845	0.0451419	0.3569218	0.0057109	0.9637133	0.1953582	-0.1893515	1.0273161	0.1447319	-0.0105757	0.9748610	-0.0303530	0.0333601	0.5040626	0.0225116	0.0183736	0.1016677	-0.0672781	0.0438098	0.1121342	0.0103859	-0.2887555	0.1159968	0.3560730	-0.2889767	0.1256810	0.2732227	-0.0697931	0.3505052	-0.0587423	-0.0418023	0.4073332	-0.0839348	-0.1185721	0.5980304	-0.0448871	-0.1346620	0.6729550	-0.0878584
408	1.0800000	-0.0391551	0.0647056	-0.0119815	-0.3679558	0.0888193	0.3261971	-0.1783073	1.3913787	0.0833286	-0.1048255	1.4391739	-0.0597068	-0.2285139	0.3494262	0.3521065	-0.1593110	0.5853142	0.3026148	-0.0696749	0.5991181	-0.0877193	-0.2813422	0.3666113	0.3242802	-0.1904187	0.6877723	0.2881721	-0.1974906	1.0379867	0.0266037	-0.2272688	0.4170330	0.3373356	-0.0289222	0.3435363	-0.0942541	-0.2028505	0.6020267	0.2656839	-0.0661682	1.3838790	0.2993536	-0.1183153	0.4864692	0.1961053	0.0306793	0.4934341	-0.0699449	-0.1137827	0.4869383	0.2908095	0.1170442	0.0478323	-0.0888554	-0.2018530	0.0453742	0.3570022	0.0052174	0.9641182	0.1921733	-0.1898109	1.0270191	0.1405969	-0.0103847	0.9749041	-0.0336146	0.0309468	0.5040720	0.0215979	0.0139284	0.1016744	-0.0672447	0.0392408	0.1117769	0.0105613	-0.2921276	0.1183745	0.3556983	-0.2924417	0.1276912	0.2729455	-0.0720884	0.3510024	-0.0589232	-0.0440568	0.4075551	-0.0845906	-0.1192550	0.6000384	-0.0415900	-0.1382906	0.6732132	-0.0854527
409	1.0900000	-0.0443947	0.0651419	-0.0119009	-0.3716570	0.0926109	0.3260108	-0.1793298	1.3916726	0.0793901	-0.1052135	1.4393492	-0.0635251	-0.2284720	0.3510690	0.3498651	-0.1586873	0.5851359	0.2986596	-0.0744113	0.5991642	-0.0903218	-0.2809174	0.3687285	0.3218348	-0.1901906	0.6873413	0.2832542	-0.1976574	1.0379648	0.0225375	-0.2261583	0.4185571	0.3346942	-0.0316582	0.3435671	-0.0954592	-0.2017790	0.6013381	0.2610281	-0.0677050	1.3840221	0.2956069	-0.1155383	0.4857542	0.1933708	0.0292187	0.4931947	-0.0711251	-0.1118418	0.4869419	0.2883671	0.1117975	0.0472512	-0.0886195	-0.2067666	0.0455518	0.3571162	0.0046308	0.9645490	0.1889704	-0.1903495	1.0265345	0.1364797	-0.0100638	0.9749844	-0.0367559	0.0281460	0.5041001	0.0206941	0.0090643	0.1015209	-0.0670022	0.0341304	0.1116504	0.0107287	-0.2954385	0.1208118	0.3554841	-0.2948799	0.1294627	0.2727296	-0.0748554	0.3516442	-0.0602450	-0.0459904	0.4078347	-0.0860058	-0.1197163	0.6008369	-0.0404289	-0.1412250	0.6747467	-0.0822483
410	1.1000000	-0.0496772	0.0648966	-0.0116033	-0.3750546	0.0968383	0.3257174	-0.1803572	1.3919747	0.0753165	-0.1057350	1.4394912	-0.0672386	-0.2279224	0.3528319	0.3478980	-0.1578573	0.5849236	0.2947213	-0.0747415	0.5987105	-0.0928710	-0.2799747	0.3710225	0.3194015	-0.1896102	0.6869165	0.2785877	-0.1977953	1.0379105	0.0183923	-0.2246329	0.4202125	0.3319610	-0.0337177	0.3434559	-0.0970677	-0.2003725	0.6007981	0.2564612	-0.0693535	1.3842176	0.2918568	-0.1123615	0.4851060	0.1904825	0.0277755	0.4929249	-0.0722033	-0.1094820	0.4868740	0.2858759	0.1064973	0.0467179	-0.0882031	-0.2116082	0.0457670	0.3572466	0.0040946	0.9650395	0.1857730	-0.1910213	1.0261874	0.1324859	-0.0099339	0.9751448	-0.0399134	0.0251633	0.5040748	0.0198112	0.0039648	0.1014395	-0.0668703	0.0290794	0.1114645	0.0108990	-0.2983969	0.1235270	0.3552199	-0.2972417	0.1313781	0.2724281	-0.0774211	0.3519943	-0.0627277	-0.0475613	0.4078870	-0.0882461	-0.1179730	0.6004452	-0.0403851	-0.1419586	0.6772228	-0.0809777
